<mxfile host="app.diagrams.net" modified="2022-06-22T18:35:45.796Z" agent="5.0 (X11; Linux x86_64) AppleWebKit/537.36 (KHTML, like Gecko) Chrome/103.0.0.0 Safari/537.36" etag="-q4glMOCgVTcH4EAG2yx" version="20.0.3" type="github">
  <diagram id="u4uiOVapPGLWC50eJ1fc" name="Page-1">
    <mxGraphModel dx="2062" dy="1148" grid="1" gridSize="10" guides="1" tooltips="1" connect="1" arrows="1" fold="1" page="1" pageScale="1" pageWidth="827" pageHeight="1169" math="0" shadow="0">
      <root>
        <mxCell id="0" />
        <mxCell id="1" parent="0" />
        <mxCell id="tXFBtIt5z_UEzLsQk_E2-16" style="edgeStyle=orthogonalEdgeStyle;rounded=0;orthogonalLoop=1;jettySize=auto;html=1;exitX=0.5;exitY=1;exitDx=0;exitDy=0;" edge="1" parent="1" source="tXFBtIt5z_UEzLsQk_E2-1" target="tXFBtIt5z_UEzLsQk_E2-13">
          <mxGeometry relative="1" as="geometry" />
        </mxCell>
        <mxCell id="tXFBtIt5z_UEzLsQk_E2-1" value="&lt;font style=&quot;vertical-align: inherit;&quot;&gt;&lt;font style=&quot;vertical-align: inherit;&quot;&gt;Point&lt;br&gt;&lt;/font&gt;&lt;/font&gt;" style="ellipse;whiteSpace=wrap;html=1;" vertex="1" parent="1">
          <mxGeometry x="80" y="100" width="120" height="80" as="geometry" />
        </mxCell>
        <mxCell id="tXFBtIt5z_UEzLsQk_E2-17" style="edgeStyle=orthogonalEdgeStyle;rounded=0;orthogonalLoop=1;jettySize=auto;html=1;exitX=0.5;exitY=1;exitDx=0;exitDy=0;" edge="1" parent="1" source="tXFBtIt5z_UEzLsQk_E2-2">
          <mxGeometry relative="1" as="geometry">
            <mxPoint x="280" y="250" as="targetPoint" />
          </mxGeometry>
        </mxCell>
        <mxCell id="tXFBtIt5z_UEzLsQk_E2-2" value="ID" style="ellipse;whiteSpace=wrap;html=1;" vertex="1" parent="1">
          <mxGeometry x="220" y="100" width="120" height="80" as="geometry" />
        </mxCell>
        <mxCell id="tXFBtIt5z_UEzLsQk_E2-21" style="edgeStyle=orthogonalEdgeStyle;rounded=0;orthogonalLoop=1;jettySize=auto;html=1;entryX=0.5;entryY=0;entryDx=0;entryDy=0;" edge="1" parent="1" source="tXFBtIt5z_UEzLsQk_E2-3" target="tXFBtIt5z_UEzLsQk_E2-20">
          <mxGeometry relative="1" as="geometry" />
        </mxCell>
        <mxCell id="tXFBtIt5z_UEzLsQk_E2-3" value="Title" style="ellipse;whiteSpace=wrap;html=1;" vertex="1" parent="1">
          <mxGeometry x="520" y="110" width="120" height="80" as="geometry" />
        </mxCell>
        <mxCell id="tXFBtIt5z_UEzLsQk_E2-35" style="edgeStyle=orthogonalEdgeStyle;rounded=0;orthogonalLoop=1;jettySize=auto;html=1;entryX=1;entryY=0.5;entryDx=0;entryDy=0;" edge="1" parent="1" source="tXFBtIt5z_UEzLsQk_E2-5" target="tXFBtIt5z_UEzLsQk_E2-34">
          <mxGeometry relative="1" as="geometry" />
        </mxCell>
        <mxCell id="tXFBtIt5z_UEzLsQk_E2-5" value="name" style="ellipse;whiteSpace=wrap;html=1;" vertex="1" parent="1">
          <mxGeometry x="660" y="560" width="120" height="80" as="geometry" />
        </mxCell>
        <mxCell id="tXFBtIt5z_UEzLsQk_E2-18" style="edgeStyle=orthogonalEdgeStyle;rounded=0;orthogonalLoop=1;jettySize=auto;html=1;exitX=0.5;exitY=1;exitDx=0;exitDy=0;" edge="1" parent="1" source="tXFBtIt5z_UEzLsQk_E2-7">
          <mxGeometry relative="1" as="geometry">
            <mxPoint x="280" y="240" as="targetPoint" />
          </mxGeometry>
        </mxCell>
        <mxCell id="tXFBtIt5z_UEzLsQk_E2-7" value="참여한 Challenge List" style="ellipse;whiteSpace=wrap;html=1;" vertex="1" parent="1">
          <mxGeometry x="360" y="100" width="120" height="80" as="geometry" />
        </mxCell>
        <mxCell id="tXFBtIt5z_UEzLsQk_E2-31" style="edgeStyle=orthogonalEdgeStyle;rounded=0;orthogonalLoop=1;jettySize=auto;html=1;entryX=0;entryY=0.5;entryDx=0;entryDy=0;" edge="1" parent="1" source="tXFBtIt5z_UEzLsQk_E2-9" target="tXFBtIt5z_UEzLsQk_E2-26">
          <mxGeometry relative="1" as="geometry" />
        </mxCell>
        <mxCell id="tXFBtIt5z_UEzLsQk_E2-9" value="Count" style="ellipse;whiteSpace=wrap;html=1;" vertex="1" parent="1">
          <mxGeometry x="20" y="880" width="120" height="80" as="geometry" />
        </mxCell>
        <mxCell id="tXFBtIt5z_UEzLsQk_E2-22" style="edgeStyle=orthogonalEdgeStyle;rounded=0;orthogonalLoop=1;jettySize=auto;html=1;" edge="1" parent="1" source="tXFBtIt5z_UEzLsQk_E2-10" target="tXFBtIt5z_UEzLsQk_E2-20">
          <mxGeometry relative="1" as="geometry" />
        </mxCell>
        <mxCell id="tXFBtIt5z_UEzLsQk_E2-10" value="Image" style="ellipse;whiteSpace=wrap;html=1;" vertex="1" parent="1">
          <mxGeometry x="680" y="110" width="120" height="80" as="geometry" />
        </mxCell>
        <mxCell id="tXFBtIt5z_UEzLsQk_E2-37" style="edgeStyle=orthogonalEdgeStyle;rounded=0;orthogonalLoop=1;jettySize=auto;html=1;entryX=1;entryY=0.5;entryDx=0;entryDy=0;" edge="1" parent="1" source="tXFBtIt5z_UEzLsQk_E2-11" target="tXFBtIt5z_UEzLsQk_E2-34">
          <mxGeometry relative="1" as="geometry" />
        </mxCell>
        <mxCell id="tXFBtIt5z_UEzLsQk_E2-11" value="Subscription" style="ellipse;whiteSpace=wrap;html=1;" vertex="1" parent="1">
          <mxGeometry x="660" y="740" width="120" height="80" as="geometry" />
        </mxCell>
        <mxCell id="tXFBtIt5z_UEzLsQk_E2-38" style="edgeStyle=orthogonalEdgeStyle;rounded=0;orthogonalLoop=1;jettySize=auto;html=1;entryX=1;entryY=0.5;entryDx=0;entryDy=0;" edge="1" parent="1" source="tXFBtIt5z_UEzLsQk_E2-12" target="tXFBtIt5z_UEzLsQk_E2-34">
          <mxGeometry relative="1" as="geometry" />
        </mxCell>
        <mxCell id="tXFBtIt5z_UEzLsQk_E2-12" value="HashTag" style="ellipse;whiteSpace=wrap;html=1;" vertex="1" parent="1">
          <mxGeometry x="660" y="840" width="120" height="80" as="geometry" />
        </mxCell>
        <mxCell id="tXFBtIt5z_UEzLsQk_E2-13" value="User" style="rounded=0;whiteSpace=wrap;html=1;" vertex="1" parent="1">
          <mxGeometry x="220" y="240" width="120" height="60" as="geometry" />
        </mxCell>
        <mxCell id="tXFBtIt5z_UEzLsQk_E2-20" value="Challenge" style="rounded=0;whiteSpace=wrap;html=1;" vertex="1" parent="1">
          <mxGeometry x="610" y="240" width="120" height="60" as="geometry" />
        </mxCell>
        <mxCell id="tXFBtIt5z_UEzLsQk_E2-27" style="edgeStyle=orthogonalEdgeStyle;rounded=0;orthogonalLoop=1;jettySize=auto;html=1;entryX=0;entryY=0.5;entryDx=0;entryDy=0;" edge="1" parent="1" source="tXFBtIt5z_UEzLsQk_E2-23" target="tXFBtIt5z_UEzLsQk_E2-26">
          <mxGeometry relative="1" as="geometry" />
        </mxCell>
        <mxCell id="tXFBtIt5z_UEzLsQk_E2-23" value="ID" style="ellipse;whiteSpace=wrap;html=1;" vertex="1" parent="1">
          <mxGeometry x="20" y="545" width="120" height="80" as="geometry" />
        </mxCell>
        <mxCell id="tXFBtIt5z_UEzLsQk_E2-29" style="edgeStyle=orthogonalEdgeStyle;rounded=0;orthogonalLoop=1;jettySize=auto;html=1;entryX=0;entryY=0.5;entryDx=0;entryDy=0;" edge="1" parent="1" source="tXFBtIt5z_UEzLsQk_E2-24" target="tXFBtIt5z_UEzLsQk_E2-26">
          <mxGeometry relative="1" as="geometry" />
        </mxCell>
        <mxCell id="tXFBtIt5z_UEzLsQk_E2-24" value="Title" style="ellipse;whiteSpace=wrap;html=1;" vertex="1" parent="1">
          <mxGeometry x="20" y="660" width="120" height="80" as="geometry" />
        </mxCell>
        <mxCell id="tXFBtIt5z_UEzLsQk_E2-30" style="edgeStyle=orthogonalEdgeStyle;rounded=0;orthogonalLoop=1;jettySize=auto;html=1;entryX=0;entryY=0.5;entryDx=0;entryDy=0;" edge="1" parent="1" source="tXFBtIt5z_UEzLsQk_E2-25" target="tXFBtIt5z_UEzLsQk_E2-26">
          <mxGeometry relative="1" as="geometry" />
        </mxCell>
        <mxCell id="tXFBtIt5z_UEzLsQk_E2-25" value="&lt;font style=&quot;vertical-align: inherit;&quot;&gt;&lt;font style=&quot;vertical-align: inherit;&quot;&gt;Point&lt;br&gt;&lt;/font&gt;&lt;/font&gt;" style="ellipse;whiteSpace=wrap;html=1;" vertex="1" parent="1">
          <mxGeometry x="20" y="770" width="120" height="80" as="geometry" />
        </mxCell>
        <mxCell id="tXFBtIt5z_UEzLsQk_E2-26" value="Habit" style="rounded=0;whiteSpace=wrap;html=1;" vertex="1" parent="1">
          <mxGeometry x="220" y="720" width="120" height="60" as="geometry" />
        </mxCell>
        <mxCell id="tXFBtIt5z_UEzLsQk_E2-36" style="edgeStyle=orthogonalEdgeStyle;rounded=0;orthogonalLoop=1;jettySize=auto;html=1;entryX=1;entryY=0.5;entryDx=0;entryDy=0;" edge="1" parent="1" source="tXFBtIt5z_UEzLsQk_E2-32" target="tXFBtIt5z_UEzLsQk_E2-34">
          <mxGeometry relative="1" as="geometry" />
        </mxCell>
        <mxCell id="tXFBtIt5z_UEzLsQk_E2-32" value="&lt;font style=&quot;vertical-align: inherit;&quot;&gt;&lt;font style=&quot;vertical-align: inherit;&quot;&gt;Point&lt;br&gt;&lt;/font&gt;&lt;/font&gt;" style="ellipse;whiteSpace=wrap;html=1;" vertex="1" parent="1">
          <mxGeometry x="660" y="650" width="120" height="80" as="geometry" />
        </mxCell>
        <mxCell id="tXFBtIt5z_UEzLsQk_E2-39" style="edgeStyle=orthogonalEdgeStyle;rounded=0;orthogonalLoop=1;jettySize=auto;html=1;entryX=1;entryY=0.5;entryDx=0;entryDy=0;" edge="1" parent="1" source="tXFBtIt5z_UEzLsQk_E2-33" target="tXFBtIt5z_UEzLsQk_E2-34">
          <mxGeometry relative="1" as="geometry" />
        </mxCell>
        <mxCell id="tXFBtIt5z_UEzLsQk_E2-33" value="Image" style="ellipse;whiteSpace=wrap;html=1;" vertex="1" parent="1">
          <mxGeometry x="660" y="930" width="120" height="80" as="geometry" />
        </mxCell>
        <mxCell id="tXFBtIt5z_UEzLsQk_E2-34" value="Maket" style="rounded=0;whiteSpace=wrap;html=1;" vertex="1" parent="1">
          <mxGeometry x="500" y="750" width="120" height="60" as="geometry" />
        </mxCell>
      </root>
    </mxGraphModel>
  </diagram>
</mxfile>
